<?xml version="1.0" encoding="utf-8"?>
<!-- Generator: Adobe Illustrator 21.0.0, SVG Export Plug-In . SVG Version: 6.00 Build 0)  -->
<svg version="1.1" id="Calque_de_dessin" xmlns="http://www.w3.org/2000/svg" xmlns:xlink="http://www.w3.org/1999/xlink" x="0px"
	 y="0px" viewBox="0 0 4234.7 4105.4" style="enable-background:new 0 0 4234.7 4105.4;" xml:space="preserve">
<style type="text/css">
	.st0{fill:#FF0000;}
</style>
<image style="overflow:visible;enable-background:new    ;" width="13858" height="16508" xlink:href="77F36D29B6E640D0.png"  transform="matrix(0.2399 0 0 0.24 434.9839 40.79)">
</image>
<g>
	<polygon class="st0" points="2024,2976.2 1990.5,2976.2 1990.5,2942.8 1960.1,2942.8 1960.1,2976.2 1926.6,2976.2 1926.6,3006.7 
		1960.1,3006.7 1960.1,3040.2 1990.5,3040.2 1990.5,3006.7 2024,3006.7 	"/>
	<polygon class="st0" points="1483.2,2604.9 1449.7,2604.9 1449.7,2571.5 1419.3,2571.5 1419.3,2604.9 1385.7,2604.9 1385.7,2635.4 
		1419.3,2635.4 1419.3,2668.9 1449.7,2668.9 1449.7,2635.4 1483.2,2635.4 	"/>
	<polygon class="st0" points="1357.9,1934.2 1324.4,1934.2 1324.4,1900.7 1294,1900.7 1294,1934.2 1260.5,1934.2 1260.5,1964.6 
		1294,1964.6 1294,1998.1 1324.4,1998.1 1324.4,1964.6 1357.9,1964.6 	"/>
	<polygon class="st0" points="1483.2,1656.6 1449.7,1656.6 1449.7,1623 1419.3,1623 1419.3,1656.6 1385.7,1656.6 1385.7,1687 
		1419.3,1687 1419.3,1720.4 1449.7,1720.4 1449.7,1687 1483.2,1687 	"/>
	<polygon class="st0" points="2347.7,1395.2 2314.2,1395.2 2314.2,1361.7 2283.7,1361.7 2283.7,1395.2 2250.2,1395.2 2250.2,1425.6 
		2283.7,1425.6 2283.7,1459.1 2314.2,1459.1 2314.2,1425.6 2347.7,1425.6 	"/>
	<polygon class="st0" points="2299,386.3 2265.4,386.3 2265.4,352.8 2235,352.8 2235,386.3 2201.5,386.3 2201.5,416.8 2235,416.8 
		2235,450.3 2265.4,450.3 2265.4,416.8 2299,416.8 	"/>
	<polygon class="st0" points="2813.5,1164 2780,1164 2780,1130.5 2749.5,1130.5 2749.5,1164 2716.1,1164 2716.1,1194.4 
		2749.5,1194.4 2749.5,1227.9 2780,1227.9 2780,1194.4 2813.5,1194.4 	"/>
	<polygon class="st0" points="3133.3,1405 3099.8,1405 3099.8,1371.5 3069.4,1371.5 3069.4,1405 3035.9,1405 3035.9,1435.4 
		3069.4,1435.4 3069.4,1468.9 3099.8,1468.9 3099.8,1435.4 3133.3,1435.4 	"/>
	<polygon class="st0" points="3409.7,1346.5 3376.2,1346.5 3376.2,1313 3345.8,1313 3345.8,1346.5 3312.3,1346.5 3312.3,1376.9 
		3345.8,1376.9 3345.8,1410.4 3376.2,1410.4 3376.2,1376.9 3409.7,1376.9 	"/>
	<polygon class="st0" points="2299,1517.6 2265.4,1517.6 2265.4,1484.1 2235,1484.1 2235,1517.6 2201.5,1517.6 2201.5,1548.1 
		2235,1548.1 2235,1581.5 2265.4,1581.5 2265.4,1548.1 2299,1548.1 	"/>
	<polygon class="st0" points="664.1,1468.9 630.6,1468.9 630.6,1435.4 600.2,1435.4 600.2,1468.9 566.6,1468.9 566.6,1499.3 
		600.2,1499.3 600.2,1532.8 630.6,1532.8 630.6,1499.3 664.1,1499.3 	"/>
	<polygon class="st0" points="2644.1,3025 2610.6,3025 2610.6,2991.5 2580.2,2991.5 2580.2,3025 2546.7,3025 2546.7,3055.4 
		2580.2,3055.4 2580.2,3088.9 2610.6,3088.9 2610.6,3055.4 2644.1,3055.4 	"/>
	<polygon class="st0" points="3064.3,2991.5 3030.7,2991.5 3030.7,2958 3000.3,2958 3000.3,2991.5 2966.8,2991.5 2966.8,3021.9 
		3000.3,3021.9 3000.3,3055.4 3030.7,3055.4 3030.7,3021.9 3064.3,3021.9 	"/>
	<polygon class="st0" points="2939.3,2354.4 2905.8,2354.4 2905.8,2320.8 2875.3,2320.8 2875.3,2354.4 2841.9,2354.4 2841.9,2384.8 
		2875.3,2384.8 2875.3,2418.3 2905.8,2418.3 2905.8,2384.8 2939.3,2384.8 	"/>
	<polygon class="st0" points="2445.1,2332.3 2411.6,2332.3 2411.6,2298.7 2381.2,2298.7 2381.2,2332.3 2347.7,2332.3 2347.7,2362.7 
		2381.2,2362.7 2381.2,2396.2 2411.6,2396.2 2411.6,2362.7 2445.1,2362.7 	"/>
	<polygon class="st0" points="3380.2,3088.9 3346.7,3088.9 3346.7,3055.4 3316.3,3055.4 3316.3,3088.9 3282.8,3088.9 3282.8,3119.3 
		3316.3,3119.3 3316.3,3152.8 3346.7,3152.8 3346.7,3119.3 3380.2,3119.3 	"/>
</g>
</svg>
