<?xml version="1.0" encoding="utf-8"?>
<!-- Generator: Adobe Illustrator 17.0.2, SVG Export Plug-In . SVG Version: 6.00 Build 0)  -->
<!DOCTYPE svg PUBLIC "-//W3C//DTD SVG 1.1//EN" "http://www.w3.org/Graphics/SVG/1.1/DTD/svg11.dtd">
<svg version="1.1" id="Calque_1" xmlns="http://www.w3.org/2000/svg" xmlns:xlink="http://www.w3.org/1999/xlink" x="0px" y="0px"
	 width="200px" height="20px" viewBox="0 0 200 20" enable-background="new 0 0 200 20" xml:space="preserve">
<title>FR_ECOLES2</title>
<g id="Calque_de_dessin">
	
		<image overflow="visible" enable-background="new    " width="2502" height="2727" xlink:href="8EE8579005B5813B.png"  transform="matrix(0.0073 0 0 0.0073 90.8263 0)">
	</image>
	<polygon points="99.632,16.257 99.447,16.257 99.447,16.072 99.278,16.072 99.278,16.257 99.093,16.257 99.093,16.426 
		99.278,16.426 99.278,16.611 99.447,16.611 99.447,16.426 99.632,16.426 	"/>
	<polygon points="96.638,14.202 96.453,14.202 96.453,14.017 96.284,14.017 96.284,14.202 96.099,14.202 96.099,14.371 
		96.284,14.371 96.284,14.556 96.453,14.556 96.453,14.371 96.638,14.371 	"/>
	<polygon points="95.945,10.489 95.759,10.489 95.759,10.303 95.591,10.303 95.591,10.489 95.405,10.489 95.405,10.657 
		95.591,10.657 95.591,10.843 95.759,10.843 95.759,10.657 95.945,10.657 	"/>
	<polygon points="96.638,8.952 96.453,8.952 96.453,8.766 96.284,8.766 96.284,8.952 96.099,8.952 96.099,9.12 96.284,9.12 
		96.284,9.305 96.453,9.305 96.453,9.12 96.638,9.12 	"/>
	<polygon points="101.424,7.505 101.239,7.505 101.239,7.319 101.07,7.319 101.07,7.505 100.885,7.505 100.885,7.673 101.07,7.673 
		101.07,7.859 101.239,7.859 101.239,7.673 101.424,7.673 	"/>
	<polygon points="101.154,1.92 100.969,1.92 100.969,1.734 100.8,1.734 100.8,1.92 100.615,1.92 100.615,2.088 100.8,2.088 
		100.8,2.274 100.969,2.274 100.969,2.088 101.154,2.088 	"/>
	<polygon points="104.003,6.225 103.817,6.225 103.817,6.039 103.649,6.039 103.649,6.225 103.463,6.225 103.463,6.393 
		103.649,6.393 103.649,6.579 103.817,6.579 103.817,6.393 104.003,6.393 	"/>
	<polygon points="105.773,7.559 105.588,7.559 105.588,7.373 105.419,7.373 105.419,7.559 105.234,7.559 105.234,7.727 
		105.419,7.727 105.419,7.913 105.588,7.913 105.588,7.727 105.773,7.727 	"/>
	<polygon points="107.304,7.235 107.118,7.235 107.118,7.05 106.95,7.05 106.95,7.235 106.764,7.235 106.764,7.404 106.95,7.404 
		106.95,7.589 107.118,7.589 107.118,7.404 107.304,7.404 	"/>
	<polygon points="101.154,8.182 100.969,8.182 100.969,7.997 100.8,7.997 100.8,8.182 100.615,8.182 100.615,8.351 100.8,8.351 
		100.8,8.536 100.969,8.536 100.969,8.351 101.154,8.351 	"/>
	<polygon points="92.104,7.913 91.918,7.913 91.918,7.727 91.75,7.727 91.75,7.913 91.564,7.913 91.564,8.081 91.75,8.081 
		91.75,8.267 91.918,8.267 91.918,8.081 92.104,8.081 	"/>
	<polygon points="103.065,16.527 102.88,16.527 102.88,16.342 102.711,16.342 102.711,16.527 102.526,16.527 102.526,16.696 
		102.711,16.696 102.711,16.881 102.88,16.881 102.88,16.696 103.065,16.696 	"/>
	<polygon points="105.391,16.342 105.205,16.342 105.205,16.156 105.037,16.156 105.037,16.342 104.852,16.342 104.852,16.51 
		105.037,16.51 105.037,16.696 105.205,16.696 105.205,16.51 105.391,16.51 	"/>
	<polygon points="104.699,12.815 104.513,12.815 104.513,12.629 104.345,12.629 104.345,12.815 104.16,12.815 104.16,12.983 
		104.345,12.983 104.345,13.169 104.513,13.169 104.513,12.983 104.699,12.983 	"/>
	<polygon points="101.963,12.692 101.778,12.692 101.778,12.507 101.609,12.507 101.609,12.692 101.424,12.692 101.424,12.861 
		101.609,12.861 101.609,13.046 101.778,13.046 101.778,12.861 101.963,12.861 	"/>
	<polygon points="107.14,16.881 106.955,16.881 106.955,16.696 106.786,16.696 106.786,16.881 106.601,16.881 106.601,17.049 
		106.786,17.049 106.786,17.235 106.955,17.235 106.955,17.049 107.14,17.049 	"/>
</g>
</svg>
